<svg width="20" height="20" viewBox="0 0 20 20" fill="none" xmlns="http://www.w3.org/2000/svg"><path fill-rule="evenodd" clip-rule="evenodd" d="M9.97202 1C4.79415 1 0.608337 5.21667 0.608337 10.4333C0.608337 14.6032 3.29033 18.1329 7.01096 19.3822C7.47614 19.4761 7.64653 19.1792 7.64653 18.9295C7.64653 18.7108 7.6312 17.9612 7.6312 17.1801C5.02645 17.7425 4.48403 16.0556 4.48403 16.0556C4.06543 14.9623 3.4452 14.6814 3.4452 14.6814C2.59266 14.1035 3.5073 14.1035 3.5073 14.1035C4.45298 14.166 4.9492 15.0718 4.9492 15.0718C5.78621 16.5085 7.13497 16.1026 7.67758 15.8526C7.75501 15.2435 8.00322 14.8218 8.26676 14.5876C6.18929 14.3689 4.00352 13.5569 4.00352 9.93339C4.00352 8.90261 4.37535 8.05927 4.96454 7.40339C4.87158 7.16917 4.54594 6.20068 5.05769 4.90444C5.05769 4.90444 5.84831 4.65451 7.631 5.87274C8.39424 5.66625 9.18135 5.56121 9.97202 5.56032C10.7626 5.56032 11.5686 5.66977 12.3128 5.87274C14.0957 4.65451 14.8864 4.90444 14.8864 4.90444C15.3981 6.20068 15.0723 7.16917 14.9793 7.40339C15.584 8.05927 15.9405 8.90261 15.9405 9.93339C15.9405 13.5569 13.7548 14.3532 11.6618 14.5876C12.0029 14.8843 12.2973 15.4465 12.2973 16.3368C12.2973 17.6018 12.282 18.617 12.282 18.9293C12.282 19.1792 12.4526 19.4761 12.9176 19.3824C16.6382 18.1327 19.3202 14.6032 19.3202 10.4333C19.3355 5.21667 15.1344 1 9.97202 1Z" /></svg>
