<svg width="20" height="20" viewBox="0 0 70 70" fill="none" xmlns="http://www.w3.org/2000/svg">
<path fill-rule="evenodd" clip-rule="evenodd" d="M61.3657 5.11302H7.87255C3.62464 5.11302 0 8.83794 0 13.0823V14.8195V24.2795V31.849C0 50.6645 15.9509 65.9211 34.9877 65.9211C54.0236 65.9211 69.97 50.6645 69.97 31.849V24.2795V14.8195V13.0823C69.97 8.83794 65.6146 5.11302 61.3657 5.11302Z" fill="#F89C15"/>
<path fill-rule="evenodd" clip-rule="evenodd" d="M12.0191 32.2942C12.0191 44.8454 22.1124 54.8576 34.8118 54.8576C47.5116 54.8576 57.609 44.689 57.609 31.969H46.1158C46.1158 38.3288 41.4181 43.4939 35.0725 43.4939C28.7193 43.4939 24.0297 38.5688 24.0297 32.2942V21.3684H12.0191V32.2942Z" fill="white"/>
<path fill-rule="evenodd" clip-rule="evenodd" d="M12.0191 32.0476C12.0191 44.5957 22.1124 54.734 34.8118 54.734C47.5116 54.734 57.609 44.689 57.609 31.969H46.1158C46.1158 38.3288 41.4181 43.3704 35.0725 43.3704C28.7193 43.3704 24.0297 38.3181 24.0297 32.0476V21.3684H12.0191V32.0476Z" fill="white"/>
<path fill-rule="evenodd" clip-rule="evenodd" d="M48.9871 14.4343L46.3044 25.4197L57.4209 28.2571L60.2957 17.2733L48.9871 14.4343Z" fill="white"/>
</svg>
