<svg width="20" height="20" viewBox="0 0 70 70" fill="none" xmlns="http://www.w3.org/2000/svg">
<path d="M5.3599 17.9265C-0.716143 26.6557 0.0349002 38.0125 4.68386 47.2885C4.78751 47.5151 4.9073 47.7292 5.02136 47.9479C5.08646 48.0901 5.16094 48.2317 5.24063 48.3713C5.27552 48.4479 5.33022 48.5323 5.375 48.6073C5.45 48.7593 5.52918 48.8984 5.60886 49.0432C5.75834 49.2943 5.9073 49.55 6.05678 49.7995C6.14115 49.9385 6.22136 50.0781 6.31563 50.2177C6.47448 50.4864 6.65886 50.7521 6.82344 51.0208C6.89792 51.1355 6.96771 51.2473 7.0474 51.3593C7.28594 51.7229 7.52552 52.0812 7.78907 52.4344C7.78907 52.4448 7.79896 52.4547 7.80886 52.4588C7.84844 52.5188 7.89323 52.576 7.93282 52.6307C8.15678 52.9369 8.38074 53.236 8.61511 53.5317C8.69479 53.6412 8.78386 53.7505 8.86407 53.8573C9.0776 54.1167 9.28698 54.3749 9.49531 54.6317C9.57552 54.7235 9.6547 54.8208 9.73959 54.9156C10.0182 55.2516 10.312 55.5849 10.6109 55.9136C10.6109 55.9183 10.6203 55.9249 10.6255 55.9328C10.6354 55.9453 10.6453 55.9579 10.6651 55.9703C10.9536 56.2864 11.2474 56.5969 11.5464 56.9057C11.6406 57.0005 11.7349 57.0927 11.8396 57.1921C12.0682 57.424 12.2974 57.6579 12.5417 57.886C12.6412 57.9812 12.7401 58.0729 12.8354 58.1645C13.1536 58.4636 13.4719 58.7625 13.8052 59.0484C13.8104 59.0536 13.8156 59.0563 13.8203 59.0604C13.875 59.1083 13.9349 59.1557 13.9849 59.2027C14.2781 59.4536 14.5724 59.7027 14.8703 59.9489C14.9901 60.0489 15.1093 60.1432 15.2292 60.2401C15.4781 60.4369 15.7265 60.6255 15.9751 60.8151C16.1047 60.912 16.2344 61.012 16.3688 61.114C16.6375 61.3151 16.9161 61.512 17.1896 61.7057C17.2891 61.7781 17.3885 61.8505 17.4932 61.9172C17.5183 61.9396 17.5479 61.9599 17.5729 61.9797C17.8464 62.1588 18.1052 62.3328 18.3745 62.5099C18.4932 62.5864 18.6084 62.6615 18.7229 62.738C19.1407 63.0047 19.5584 63.2609 19.9719 63.5099C20.0912 63.5724 20.2104 63.6396 20.3251 63.7063C20.6333 63.8855 20.9473 64.0625 21.2656 64.2317C21.4396 64.3287 21.614 64.4136 21.7927 64.5027C22.0073 64.6197 22.2312 64.7391 22.4604 64.8563C22.5151 64.8781 22.5697 64.8984 22.6193 64.926C22.7136 64.9683 22.8031 65.0156 22.8927 65.0599C23.2417 65.2317 23.5995 65.3937 23.9683 65.5579C24.0375 65.5907 24.112 65.6197 24.1869 65.6579C24.5995 65.8364 25.0131 66.0083 25.436 66.1749C25.536 66.2125 25.6349 66.2573 25.7396 66.2916C26.1229 66.4416 26.5208 66.588 26.914 66.7297C26.964 66.75 27.0084 66.7651 27.0584 66.7817C27.4964 66.9317 27.9292 67.0729 28.3724 67.2104C28.4765 67.2401 28.5812 67.2771 28.6907 67.3047C29.1437 67.4416 29.5812 67.6011 30.0443 67.688C59.4213 73.0432 67.9563 50.0333 67.9563 50.0333C60.7855 59.3667 48.0599 61.8328 36.0068 59.0907C35.5584 58.9891 35.1156 58.8469 34.6631 58.7125C34.5579 58.6823 34.4385 58.6479 34.3339 58.6104C33.8964 58.4787 33.4636 58.3364 33.0407 58.1921C32.9807 58.1724 32.9161 58.1505 32.8563 58.1249C32.4735 57.9937 32.0953 57.8489 31.7167 57.7027C31.612 57.6579 31.5027 57.6197 31.3979 57.5803C30.9797 57.4161 30.5672 57.2396 30.164 57.0625C30.0745 57.0307 29.9995 56.9927 29.9145 56.9583C29.562 56.7964 29.2235 56.6375 28.8797 56.4729C28.7755 56.4287 28.6807 56.3781 28.576 56.326C28.3073 56.1989 28.0391 56.0573 27.7755 55.9183C27.5912 55.8235 27.4115 55.7364 27.2375 55.6396C26.914 55.4656 26.5907 55.2812 26.2672 55.1021C26.1672 55.0344 26.0579 54.9771 25.9432 54.9156C25.5255 54.6667 25.1021 54.4104 24.6896 54.1464C24.5703 54.0713 24.4604 53.9969 24.3511 53.9197C24.0473 53.7287 23.7484 53.5265 23.4552 53.3276C23.3604 53.2604 23.2661 53.1907 23.1667 53.1213C22.8828 52.9219 22.6041 52.7208 22.3208 52.5136C22.2011 52.4193 22.0765 52.3249 21.9473 52.2307C21.6932 52.0339 21.4396 51.8401 21.186 51.6355C21.076 51.5437 20.9625 51.4536 20.8521 51.3645C20.524 51.1011 20.2156 50.8364 19.9016 50.5631C19.8719 50.5307 19.8276 50.5031 19.7921 50.476C19.4588 50.1776 19.1255 49.8719 18.7969 49.5677C18.6973 49.4735 18.6136 49.386 18.5136 49.2964C18.2751 49.0625 18.036 48.8339 17.8021 48.5969C17.7027 48.4979 17.6125 48.4057 17.5183 48.3115C17.2193 48.0099 16.9255 47.6989 16.6375 47.3807C16.6224 47.3677 16.6073 47.3536 16.5921 47.336C16.2891 47.0027 15.9953 46.664 15.7021 46.3203C15.6219 46.2287 15.5473 46.1344 15.4683 46.0443C15.2536 45.7807 15.0396 45.5145 14.8208 45.2505C14.7516 45.1484 14.6713 45.0516 14.5917 44.9521C14.338 44.6255 14.0943 44.3 13.8505 43.964C7.16146 34.8391 4.74792 22.2464 10.0984 11.912" fill="#88D6F6"/>
<path d="M24.2219 10.5683C19.8172 16.8885 20.0615 25.3516 23.4901 32.0396C24.0573 33.1593 24.7041 34.2473 25.4307 35.2803C26.088 36.2255 26.8145 37.3453 27.6953 38.1041C28.0036 38.4527 28.3369 38.7912 28.6807 39.1317C28.7656 39.2161 28.8505 39.2989 28.9396 39.388C29.2683 39.7036 29.6016 40.0151 29.9448 40.3183C29.9552 40.3312 29.9745 40.3437 29.9849 40.3563C29.9896 40.3588 29.9948 40.3636 29.9948 40.3636C30.3776 40.7021 30.7661 41.0229 31.1693 41.3364C31.2636 41.4036 31.3484 41.4787 31.4427 41.5459C31.8412 41.8568 32.2495 42.1547 32.662 42.4484C32.6771 42.4536 32.6869 42.4636 32.7073 42.4713C32.886 42.6005 33.0751 42.7203 33.2693 42.8443C33.3536 42.8989 33.4432 42.9636 33.5281 43.0161C33.8312 43.2131 34.1303 43.3964 34.4385 43.5787C34.4839 43.6011 34.5281 43.6255 34.5729 43.6479C34.8317 43.8047 35.1052 43.9588 35.3797 44.0984C35.474 44.1557 35.5683 44.2005 35.6631 44.2527C35.8521 44.3469 36.0412 44.4469 36.2251 44.5437C36.25 44.5568 36.2855 44.5708 36.3151 44.5839C36.7031 44.7755 37.0964 44.9521 37.4844 45.1292C37.5787 45.1661 37.6588 45.1984 37.7479 45.236C38.0672 45.3724 38.3901 45.5073 38.7088 45.6292C38.8527 45.6765 38.9875 45.7328 39.1219 45.7807C39.4151 45.8849 39.714 45.9869 40.0079 46.0839C40.1516 46.1317 40.2812 46.1713 40.4109 46.2136C40.8287 46.3459 41.2521 46.5151 41.6948 46.5839C64.3688 50.3443 69.614 32.8781 69.614 32.8781C64.8912 39.6817 55.7484 42.9213 45.9948 40.3885C45.5568 40.2765 45.1292 40.1516 44.7104 40.0151C44.576 39.9807 44.4573 39.938 44.3276 39.8932C44.024 39.7964 43.7197 39.6937 43.4265 39.5849C43.2921 39.5355 43.1531 39.4849 43.0188 39.4328C42.6953 39.3063 42.3719 39.1817 42.0579 39.0421C41.9636 39.0047 41.874 38.9729 41.7995 38.9328C41.3964 38.7583 40.9979 38.5713 40.6099 38.3855C40.4109 38.2833 40.2167 38.1839 40.0177 38.0797C39.8984 38.0197 39.7839 37.9625 39.6792 37.9079C39.4151 37.7708 39.1713 37.6265 38.9224 37.4797C38.8636 37.4473 38.8031 37.4172 38.7432 37.3823C38.4401 37.1984 38.126 37.0145 37.838 36.8224C37.738 36.7656 37.6536 36.7005 37.5593 36.6412C37.3599 36.5145 37.1661 36.3875 36.9615 36.2505C36.5489 35.964 36.1459 35.6609 35.7427 35.3568C35.6479 35.2803 35.5584 35.2104 35.4688 35.1355C31.1885 31.7661 27.8047 27.1583 26.2027 21.9401C24.5104 16.5203 24.8833 10.4364 27.8 5.50214" fill="#88D6F6"/>
<path d="M40.0776 5.07187C37.4797 8.88334 37.2307 13.6193 39.0219 17.8245C40.9235 22.2937 44.8099 25.7995 49.3391 27.4588C49.5229 27.5312 49.7073 27.5912 49.8964 27.6557C49.9812 27.6803 50.0604 27.7079 50.1505 27.7349C50.414 27.8172 50.6776 27.9167 50.9511 27.9693C63.4771 30.388 66.8719 21.5416 67.7823 20.2401C64.8016 24.5255 59.8 25.5527 53.6636 24.0625C53.1807 23.9453 52.6531 23.7713 52.1855 23.6021C51.5885 23.3907 50.9964 23.1443 50.4188 22.8729C49.3391 22.3484 48.2937 21.7161 47.3281 20.9844C41.8339 16.8193 38.4303 8.87401 42.0131 2.40161" fill="#88D6F6"/>
</svg>
