<svg width="22" height="22" viewBox="0 0 70 70" fill="none" xmlns="http://www.w3.org/2000/svg">
<path d="M60.3543 9.87523H9.41779C8.33652 9.87523 7.26891 10.6606 7.02802 11.719L0.0461171 43.0723C-0.188506 44.1293 0.495075 45.0461 1.58113 45.0461H51.895C52.9748 45.0461 54.0468 44.0932 54.28 43.0381L61.2652 11.694C61.4998 10.6344 61.4311 9.87523 60.3543 9.87523Z" fill="#2E64B3"/>
<path d="M68.6322 18.1467H31.7974C30.7158 18.1467 29.6452 19.0313 29.4073 20.0889L23.2111 48.0386C22.975 49.1003 23.6601 50.2163 24.7413 50.2163H61.411C62.4907 50.2163 63.5599 49.1096 63.7989 48.0508L69.995 20.3209C70.2333 19.2692 69.7198 18.1467 68.6322 18.1467Z" fill="#56C5F2"/>
<path d="M31.7974 18.1466C30.7158 18.1466 29.6452 19.1249 29.4073 20.1796L23.8685 45.0461H51.895C52.9748 45.0461 54.0468 44.0666 54.2799 43.0152L59.7998 18.1466H31.7974Z" fill="#88D6F6"/>
<path d="M36.0465 27.9772H19.341C18.2564 27.9772 17.1855 28.7334 16.9442 29.7911L9.97774 60.4958C9.73389 61.5509 10.4179 62.6318 11.5025 62.6318H28.1899C29.2701 62.6318 30.3447 61.5018 30.5841 60.4442L37.5509 29.9195C37.7918 28.8677 37.1528 27.9834 36.0701 27.9834" fill="#41B73C"/>
<path d="M36.0465 27.9772H19.341C18.2565 27.9772 17.1855 28.8301 16.9442 29.8821L13.4747 45.0461H34.0869L37.5509 29.8755" fill="#7FCD48"/>
<path d="M36.0465 27.9772H27.6952L23.2111 48.153C22.975 49.2129 23.6601 50.2163 24.7413 50.2163H32.9742L37.5509 30.0323C37.7918 28.9806 37.1528 28.0181 36.0701 28.0181" fill="#ACD91A"/>
<path d="M36.1048 27.9772H27.6952L23.9268 45.0461H34.1452L37.6088 29.9194C37.8497 28.8628 37.1876 27.9772 36.1048 27.9772Z" fill="white"/>
</svg>
