<svg width="20" height="20" viewBox="0 0 70 70" fill="none" xmlns="http://www.w3.org/2000/svg">
<path d="M70.0743 62.2708C70.0743 66.0615 66.2516 70.0741 62.4481 70.0741H7.23348C3.43948 70.0741 0 66.0615 0 62.2708V7.04541C0 3.25472 3.43948 0.00321806 7.23348 0.00321806H62.4481C66.2516 0.00321806 70.0743 3.25472 70.0743 7.04541V62.2708Z" fill="#992094"/>
<path d="M61.4159 37.0606H57.587C57.3713 37.0606 57.1557 37.3488 57.1171 37.5556L55.7562 43.9122L54.3998 50.514C54.3517 50.7301 54.136 51.2077 53.9241 51.2077H51.6018H51.2127C48.5282 51.2077 48.8364 49.0742 49.3812 46.5315L49.406 46.3084L49.4624 45.9156L49.4732 45.8238L49.6003 45.1521L49.7298 44.4433C49.7701 44.2353 49.8301 43.9192 49.8659 43.7239L50.4864 40.6991L51.1088 37.5556C51.1533 37.3488 51.0126 37.0606 50.8005 37.0606H46.8622C46.6484 37.0606 46.4382 37.3488 46.3983 37.5556L45.77 41.631L44.8453 45.9156C43.8671 50.3676 43.9116 54.5824 49.2041 54.5824H49.3575H57.6722C57.8879 54.5824 58.0976 54.5824 58.138 54.3663L59.9311 46.0156L61.7259 37.5103C61.774 37.3104 61.6333 37.0606 61.4159 37.0606Z" fill="white"/>
<path d="M33.6006 34.1029L32.0449 40.3073L30.5328 45.4692C30.4366 45.8504 29.9377 45.8155 29.5796 45.8155H22.2417C16.6881 45.8155 15.3318 41.2834 16.6881 34.0751C18.0459 26.711 20.8227 22.3125 26.2981 21.843C33.788 21.2143 35.409 27.2885 33.6006 34.1029ZM38.3751 46.0852C38.3751 46.0852 41.8336 36.6677 42.6158 31.2175C43.6808 23.9383 40.4396 13.3773 27.8828 13.3773C15.4035 13.3773 9.97621 23.4595 7.90761 34.4225C5.84127 45.4658 8.55129 55.1528 20.9611 55.0761L30.7598 55.0332L39.9176 54.9983C40.2603 54.9983 40.6239 54.6752 40.7134 54.2976L42.3062 47.4797C42.3961 47.0915 42.1822 46.7789 41.83 46.7789L40.3029 46.7638L38.7736 46.7557C38.4673 46.7487 38.3016 46.5395 38.3328 46.2432L38.3751 46.0852Z" fill="white"/>
</svg>
